<mxfile host="app.diagrams.net" modified="2024-01-02T08:35:41.208Z" agent="Mozilla/5.0 (Windows NT 10.0; Win64; x64) AppleWebKit/537.36 (KHTML, like Gecko) Chrome/120.0.0.0 Safari/537.36" version="22.1.16" etag="PRbf8cL4VNWdIw70sX2S" type="github">
  <diagram name="第 1 页" id="wWCLQazThF3tobiFlF5J">
    <mxGraphModel>
      <root>
        <mxCell id="0" />
        <mxCell id="1" parent="0" />
      </root>
    </mxGraphModel>
  </diagram>
</mxfile>
